<svg width="24" height="24" viewBox="0 0 24 24" fill="none" xmlns="http://www.w3.org/2000/svg">
<g id="icon/menu/board/line">
<path id="Vector" d="M18.251 2.49799C19.0811 2.49793 19.8798 2.81554 20.4832 3.38566C21.0866 3.95578 21.449 4.73518 21.496 5.56399L21.501 5.74799V17.752C21.501 18.6139 21.1586 19.4406 20.5491 20.0501C19.9396 20.6596 19.113 21.002 18.251 21.002H6.251C5.42069 21.0023 4.62175 20.6848 4.01813 20.1147C3.41452 19.5445 3.05201 18.765 3.005 17.936L3 17.752V5.74799C3 4.88603 3.34241 4.05938 3.9519 3.44989C4.5614 2.8404 5.38805 2.49799 6.25 2.49799H18.251ZM11.5 9.49799L4.5 9.49899V17.752L4.507 17.912C4.54691 18.3466 4.74781 18.7507 5.07028 19.0449C5.39275 19.339 5.81351 19.5021 6.25 19.502L11.5 19.501V9.49799ZM20 15.498L13 15.499V19.501H18.25C18.7141 19.501 19.1592 19.3166 19.4874 18.9884C19.8156 18.6602 20 18.2151 20 17.751V15.498ZM18.251 3.99799L13 3.99699V14L20 13.999L20.001 5.74899L19.994 5.58899C19.9541 5.15433 19.7532 4.75027 19.4307 4.45611C19.1082 4.16194 18.6875 3.9989 18.251 3.99899M11.5 3.99699L6.25 3.99799L6.107 4.00399C5.6693 4.04013 5.26119 4.23952 4.96368 4.56259C4.66617 4.88567 4.50102 5.3088 4.501 5.74799L4.5 7.99999H11.5V3.99699Z" fill="#666666"/>
</g>
</svg>
