<svg width="20" height="20" viewBox="0 0 20 20" fill="none" xmlns="http://www.w3.org/2000/svg">
<g id="Group">
<path id="Vector" d="M13.1153 7.22537C14.1792 7.22567 15.2232 7.5144 16.136 8.06083C17.0489 8.60726 17.7966 9.39096 18.2994 10.3285C18.8023 11.2661 19.0416 12.3225 18.9918 13.3852C18.9421 14.448 18.6051 15.4773 18.0168 16.3638L18.9999 18.9946L15.6907 18.3992C14.8948 18.7873 14.0217 18.9908 13.1363 18.9945C12.2508 18.9983 11.376 18.8021 10.5769 18.4208C9.77778 18.0394 9.07504 17.4827 8.52103 16.792C7.96701 16.1013 7.57601 15.2944 7.37715 14.4316C7.17828 13.5688 7.17669 12.6723 7.37248 11.8087C7.56827 10.9452 7.9564 10.137 8.50796 9.44436C9.05951 8.75169 9.76026 8.19242 10.558 7.80822C11.3557 7.42402 12.2299 7.22479 13.1153 7.22537Z" stroke="#666666" stroke-width="1.5" stroke-linecap="round" stroke-linejoin="round"/>
<path id="Vector_2" d="M13.96 3.77771C13.0276 2.59119 11.7484 1.72495 10.3005 1.29959C8.85261 0.87423 7.30814 0.910918 5.88209 1.40455C4.45605 1.89818 3.21942 2.82418 2.34436 4.05363C1.46931 5.28308 0.999392 6.75479 1.00003 8.26385C0.995741 9.69832 1.42003 11.1014 2.21849 12.2931L1.00003 15.5331L3.93541 15.0069" stroke="#666666" stroke-width="1.5" stroke-linecap="round" stroke-linejoin="round"/>
</g>
</svg>
