<svg width="24" height="24" viewBox="0 0 24 24" fill="none" xmlns="http://www.w3.org/2000/svg">
<g id="icon/menu/board/filled">
<path id="Vector" d="M11.5714 2.57129V8.14272H2.57143V5.78557C2.57143 4.93309 2.91007 4.11553 3.51287 3.51273C4.11566 2.90994 4.93323 2.57129 5.78571 2.57129H11.5714ZM12.8571 2.57129V14.1427H21.4286V5.78557C21.4286 4.93309 21.0899 4.11553 20.4871 3.51273C19.8843 2.90994 19.0668 2.57129 18.2143 2.57129H12.8571ZM21.4286 15.4284H12.8571V21.4284H18.2143C19.0668 21.4284 19.8843 21.0898 20.4871 20.487C21.0899 19.8842 21.4286 19.0666 21.4286 18.2141V15.4284ZM11.5714 21.4284V9.42843H2.57143V18.2141C2.57143 19.0666 2.91007 19.8842 3.51287 20.487C4.11566 21.0898 4.93323 21.4284 5.78571 21.4284H11.5714Z" fill="#148CE1"/>
</g>
</svg>
