<svg width="18" height="18" viewBox="0 0 18 18" fill="none" xmlns="http://www.w3.org/2000/svg">
<g id="Group 2">
<path id="Vector" d="M7.09095 0.500007L7.09157 0.500006C8.50253 0.498038 9.8768 0.949391 11.0118 1.78754C11.9205 2.45853 12.6373 3.34899 13.0992 4.36966C12.0747 4.25373 11.0345 4.33933 10.0378 4.6249C8.75163 4.99341 7.58024 5.68285 6.6337 6.62843C5.68716 7.57401 4.99653 8.7447 4.62671 10.0305C4.3403 11.0263 4.25358 12.0658 4.36814 13.0897C4.3145 13.0652 4.26112 13.04 4.20799 13.0141L4.061 12.9423L3.9 12.9713L0.775772 13.5337L1.65294 11.1867L1.74226 10.9477L1.60116 10.7351C0.94213 9.74228 0.564627 8.58934 0.508825 7.39899C0.453024 6.20865 0.721014 5.02545 1.28427 3.97532C1.84753 2.92518 2.68498 2.04742 3.70749 1.43545C4.73 0.823475 5.8993 0.500192 7.09095 0.500007ZM15.9514 8.47616L15.9515 8.47621C16.8138 9.33905 17.3511 10.4736 17.4723 11.6874C17.5934 12.9012 17.291 14.1196 16.6163 15.1359L16.4751 15.3485L16.5645 15.5876L17.2242 17.3519L14.8355 16.9221L14.6746 16.8932L14.5277 16.9648C13.4497 17.4907 12.2249 17.6344 11.0545 17.3721C9.88414 17.1099 8.83774 16.4573 8.08725 15.5217C7.33676 14.5861 6.92682 13.423 6.92476 12.2236C6.92271 11.0242 7.32867 9.85973 8.07595 8.92155L8.07613 8.92131C8.53979 8.33849 9.12139 7.86023 9.7828 7.51788C10.4442 7.17554 11.1705 6.97684 11.9141 6.93481C12.6577 6.89278 13.4017 7.00837 14.0975 7.27399C14.7933 7.53962 15.4251 7.9493 15.9514 8.47616Z" fill="#148CE1" stroke="#148CE1"/>
</g>
</svg>
