<svg width="20" height="22" viewBox="0 0 20 22" fill="none" xmlns="http://www.w3.org/2000/svg">
<g id="Group">
<path id="Vector" fill-rule="evenodd" clip-rule="evenodd" d="M7.99985 1C7.99985 0.734784 8.10521 0.48043 8.29274 0.292893C8.48028 0.105357 8.73463 0 8.99985 0H10.9999C11.2651 0 11.5194 0.105357 11.707 0.292893C11.8945 0.48043 11.9999 0.734784 11.9999 1V2.32L15.3289 2.874C15.7957 2.95209 16.2196 3.1932 16.5254 3.55446C16.8312 3.91572 16.9989 4.37371 16.9988 4.847V8.279L19.0588 8.965C19.2229 9.01973 19.3738 9.10791 19.5021 9.22397C19.6303 9.34003 19.7331 9.48143 19.8038 9.63924C19.8746 9.79705 19.9119 9.96783 19.9132 10.1408C19.9146 10.3137 19.8801 10.4851 19.8118 10.644L17.2908 16.527L18.4468 17.106C18.5684 17.1622 18.6775 17.2422 18.7676 17.3413C18.8576 17.4404 18.9269 17.5566 18.9712 17.683C19.0155 17.8094 19.034 17.9433 19.0255 18.077C19.017 18.2107 18.9818 18.3412 18.9219 18.461C18.862 18.5808 18.7787 18.6874 18.6768 18.7743C18.575 18.8613 18.4567 18.9269 18.329 18.9673C18.2013 19.0077 18.0668 19.022 17.9335 19.0094C17.8002 18.9968 17.6707 18.9576 17.5528 18.894L14.8938 17.565C14.6163 17.4263 14.3102 17.3541 13.9999 17.3541C13.6895 17.3541 13.3834 17.4263 13.1059 17.565L11.7888 18.224C11.2334 18.5018 10.6209 18.6464 9.99985 18.6464C9.37881 18.6464 8.76631 18.5018 8.21085 18.224L6.89385 17.565C6.61612 17.4261 6.30987 17.3538 5.99935 17.3538C5.68883 17.3538 5.38258 17.4261 5.10485 17.565L2.44685 18.895C2.20948 19.0136 1.93474 19.033 1.68307 18.9489C1.43139 18.8649 1.2234 18.6844 1.10485 18.447C0.986298 18.2096 0.966896 17.9349 1.05091 17.6832C1.13493 17.4315 1.31548 17.2236 1.55285 17.105L3.38485 16.189L0.28285 10.761C0.191099 10.6004 0.13612 10.4215 0.121877 10.2371C0.107634 10.0527 0.134482 9.86748 0.200485 9.69472C0.266488 9.52197 0.370002 9.36601 0.503564 9.23809C0.637125 9.11017 0.797406 9.01349 0.97285 8.955L2.99985 8.279V4.847C2.99975 4.37371 3.16751 3.91572 3.47328 3.55446C3.77906 3.1932 4.20304 2.95209 4.66985 2.874L7.99985 2.32V1ZM5.24985 15.425C6.11145 15.2606 7.00322 15.3839 7.78785 15.776L9.10385 16.435C9.38171 16.574 9.68814 16.6464 9.99885 16.6464C10.3096 16.6464 10.616 16.574 10.8939 16.435L12.2099 15.776C12.7163 15.5228 13.2708 15.38 13.8366 15.3571C14.4023 15.3341 14.9665 15.4316 15.4919 15.643L17.6518 10.605L9.99985 8.055L2.47285 10.563L5.24985 15.425ZM14.9999 7.613V4.847L9.99985 4.014L4.99985 4.847V7.613L9.36685 6.157C9.77741 6.02014 10.2213 6.02014 10.6319 6.157L14.9999 7.613Z" fill="#148CE1"/>
</g>
</svg>
