<svg width="10" height="10" viewBox="0 0 10 10" fill="none" xmlns="http://www.w3.org/2000/svg">
<g id="Group 3">
<path id="Union" fill-rule="evenodd" clip-rule="evenodd" d="M6 -1.56348C6 -2.11576 5.55229 -2.56348 5 -2.56348C4.44772 -2.56348 4 -2.11576 4 -1.56348V4H-1.56348C-2.11576 4 -2.56348 4.44772 -2.56348 5C-2.56348 5.55229 -2.11576 6 -1.56348 6H4V11.5635C4 12.1158 4.44771 12.5635 5 12.5635C5.55228 12.5635 6 12.1158 6 11.5635V6H11.5635C12.1158 6 12.5635 5.55229 12.5635 5C12.5635 4.44772 12.1158 4 11.5635 4H6V-1.56348Z" fill="white"/>
</g>
</svg>
