<svg width="20" height="22" viewBox="0 0 20 22" fill="none" xmlns="http://www.w3.org/2000/svg">
<g id="Group">
<path id="Vector" fill-rule="evenodd" clip-rule="evenodd" d="M8 1C8 0.734784 8.10536 0.48043 8.2929 0.292893C8.48043 0.105357 8.73479 0 9 0H11C11.2652 0 11.5196 0.105357 11.7071 0.292893C11.8946 0.48043 12 0.734784 12 1V2.32L15.329 2.874C15.7958 2.95209 16.2198 3.1932 16.5256 3.55446C16.8313 3.91572 16.9991 4.37371 16.999 4.847V8.279L19.059 8.965C19.2231 9.01973 19.374 9.10791 19.5022 9.22397C19.6305 9.34003 19.7332 9.48143 19.804 9.63924C19.8748 9.79705 19.912 9.96783 19.9134 10.1408C19.9148 10.3137 19.8802 10.4851 19.812 10.644L17.291 16.527L18.447 17.106C18.5686 17.1622 18.6776 17.2422 18.7677 17.3413C18.8578 17.4404 18.927 17.5566 18.9713 17.683C19.0156 17.8094 19.0341 17.9433 19.0256 18.077C19.0172 18.2107 18.982 18.3412 18.9221 18.461C18.8622 18.5808 18.7788 18.6874 18.677 18.7743C18.5751 18.8613 18.4569 18.9269 18.3292 18.9673C18.2015 19.0077 18.067 19.022 17.9337 19.0094C17.8003 18.9968 17.6709 18.9576 17.553 18.894L14.894 17.565C14.6164 17.4263 14.3103 17.3541 14 17.3541C13.6897 17.3541 13.3836 17.4263 13.106 17.565L11.789 18.224C11.2335 18.5018 10.621 18.6464 10 18.6464C9.37897 18.6464 8.76646 18.5018 8.211 18.224L6.894 17.565C6.61627 17.4261 6.31002 17.3538 5.9995 17.3538C5.68898 17.3538 5.38273 17.4261 5.105 17.565L2.447 18.895C2.20963 19.0136 1.93489 19.033 1.68322 18.9489C1.43154 18.8649 1.22355 18.6844 1.105 18.447C0.986451 18.2096 0.967049 17.9349 1.05107 17.6832C1.13508 17.4315 1.31563 17.2236 1.553 17.105L3.385 16.189L0.283003 10.761C0.191251 10.6004 0.136272 10.4215 0.122029 10.2371C0.107787 10.0527 0.134634 9.86748 0.200638 9.69472C0.266641 9.52197 0.370155 9.36601 0.503716 9.23809C0.637278 9.11017 0.797559 9.01349 0.973003 8.955L3 8.279V4.847C2.9999 4.37371 3.16766 3.91572 3.47344 3.55446C3.77921 3.1932 4.2032 2.95209 4.67 2.874L8 2.32V1ZM5.25 15.425C6.1116 15.2606 7.00337 15.3839 7.788 15.776L9.104 16.435C9.38186 16.574 9.6883 16.6464 9.999 16.6464C10.3097 16.6464 10.6161 16.574 10.894 16.435L12.21 15.776C12.7165 15.5228 13.2709 15.38 13.8367 15.3571C14.4025 15.3341 14.9667 15.4316 15.492 15.643L17.652 10.605L10 8.055L2.473 10.563L5.25 15.425ZM15 7.613V4.847L10 4.014L5 4.847V7.613L9.367 6.157C9.77756 6.02014 10.2214 6.02014 10.632 6.157L15 7.613Z" fill="#666666"/>
</g>
</svg>
