<svg width="114" height="120" viewBox="0 0 114 120" fill="none" xmlns="http://www.w3.org/2000/svg">
<g id="Group 6">
<g id="Group 2">
<path id="Polygon 1" d="M56 0V49.2366L28.0451 42.7439L56 0Z" fill="#148CE1"/>
<path id="Polygon 2" d="M56 0V49.2366L83.9549 42.7439L56 0Z" fill="#32AAFF"/>
<path id="Polygon 3" d="M0 36.2511L56 49.1464L23.7166 75.388L0 36.2511Z" fill="#0078CD"/>
<path id="Polygon 4" d="M112 36.2511L56 49.1464L88.2834 75.388L112 36.2511Z" fill="#148CE1"/>
<path id="Polygon 5" d="M55.9938 49.1262L88.2795 75.3696H23.7289L55.9938 49.1262Z" fill="#0068B1"/>
<path id="Polygon 6" d="M34.611 32.7328L28.1049 42.715L0.0310669 36.2624L34.611 32.7328Z" fill="#0068B1"/>
<path id="Polygon 7" d="M77.4201 32.7328L83.9261 42.715L112 36.2624L77.4201 32.7328Z" fill="#0068B1"/>
</g>
<path id="Vector 4" d="M4.08215 93.3122L6.70462 90.6898C12.4653 84.9291 21.9883 85.589 26.8995 92.0891L27.6059 93.024C32.6206 99.6612 42.5912 99.6612 47.6059 93.024V93.024C52.6206 86.3868 62.5912 86.3868 67.6059 93.024V93.024C72.6206 99.6612 82.5912 99.6612 87.6059 93.024L88.3123 92.0891C93.2234 85.589 102.746 84.9291 108.507 90.6898L111.13 93.3122" stroke="#148CE1" stroke-width="4" stroke-linecap="round"/>
<path id="Vector 5" d="M4.08215 106.548L6.70462 103.925C12.4653 98.1645 21.9883 98.8243 26.8995 105.324L27.6059 106.259C32.6206 112.897 42.5912 112.897 47.6059 106.259V106.259C52.6206 99.6222 62.5912 99.6222 67.6059 106.259V106.259C72.6206 112.897 82.5912 112.897 87.6059 106.259L88.3123 105.324C93.2234 98.8243 102.746 98.1645 108.507 103.925L111.13 106.548" stroke="#148CE1" stroke-width="3.5" stroke-linecap="round"/>
</g>
</svg>
